<?xml version="1.0" encoding="utf-8"?>
<svg xmlns="http://www.w3.org/2000/svg" viewBox="0 0 500 500">
  <rect x="180.716" y="168.591" width="105.081" height="133.372" style="fill: rgb(216, 216, 216); stroke: rgb(0, 0, 0);"/>
  <path d="M 219.722 61.959 C 225.339 65.34 228.001 69.996 230.695 75.679 C 231.493 77.298 232.292 78.917 233.092 80.535 C 233.478 81.33 233.863 82.123 234.26 82.941 C 235.7 85.883 237.216 88.782 238.735 91.688 C 246.633 106.997 254.53 122.354 261.481 138.092 C 261.823 138.866 262.164 139.635 262.515 140.431 C 264.756 145.603 264.756 145.603 264.756 147.631 C 265.746 147.462 266.734 147.294 267.754 147.121 C 277.369 145.513 286.992 144.182 296.681 143.049 C 300.698 142.578 304.714 142.095 308.73 141.614 C 309.53 141.52 310.329 141.423 311.153 141.325 C 325.856 139.563 340.534 137.615 355.207 135.63 C 366.481 134.106 377.762 132.629 389.048 131.204 C 390.648 131.001 392.249 130.798 393.849 130.594 C 396.097 130.305 398.345 130.022 400.596 129.74 C 401.261 129.654 401.927 129.569 402.612 129.479 C 411.103 128.433 416.531 128.857 423.75 133.352 C 427.37 137.039 428.768 139.657 428.644 144.828 C 427.5 152.16 419.165 156.816 413.641 161.018 C 403.764 168.779 394.028 176.67 384.631 184.977 C 382.388 186.903 380.083 188.714 377.741 190.523 C 371.644 195.309 366.029 200.578 360.347 205.82 C 356.856 209.04 353.298 212.176 349.71 215.291 C 341.976 222.019 334.467 228.913 327.164 236.083 C 323.776 239.397 320.318 242.575 316.639 245.588 C 315.181 246.761 315.181 246.761 313.464 248.476 C 313.829 251.727 315.569 254.497 317.101 257.364 C 317.377 257.88 317.651 258.396 317.934 258.928 C 318.834 260.615 319.739 262.298 320.646 263.981 C 321.275 265.157 321.904 266.331 322.533 267.507 C 326.662 275.204 330.889 282.845 335.201 290.446 C 338.456 296.197 341.605 301.994 344.713 307.821 C 348.718 315.33 352.839 322.766 357.035 330.176 C 361.266 337.674 365.326 345.256 369.355 352.858 C 369.831 353.755 370.307 354.653 370.798 355.576 C 371.43 356.77 371.43 356.77 372.073 357.987 C 373.244 360.18 373.244 360.18 375.041 362.705 C 375.747 367.885 375.554 372.682 372.284 376.985 C 367.672 380.297 363.345 381.717 357.578 381.446 C 353.996 380.423 350.75 378.879 347.412 377.262 C 346.455 376.817 345.499 376.371 344.512 375.911 C 341.505 374.503 338.514 373.068 335.521 371.629 C 333.655 370.752 331.789 369.875 329.921 368.999 C 317.98 363.343 306.381 357.187 294.875 350.742 C 292.388 349.353 289.892 347.98 287.391 346.615 C 272.506 338.46 257.985 329.746 243.617 320.761 C 240.319 323.172 237.773 325.639 235.231 328.793 C 232.179 332.497 229.025 336.037 225.697 339.502 C 221.785 343.589 218.092 347.796 214.488 352.142 C 212.179 354.903 209.81 357.604 207.431 360.307 C 203.527 364.758 199.767 369.301 196.069 373.916 C 192.853 377.927 189.555 381.867 186.235 385.797 C 182.291 390.479 178.465 395.224 174.747 400.076 C 174.083 400.94 174.083 400.94 173.404 401.823 C 171.449 404.365 169.494 406.911 167.545 409.459 C 165.861 411.657 164.159 413.843 162.455 416.028 C 161.938 416.71 161.42 417.39 160.888 418.091 C 157.037 422.988 153.562 426.34 147.062 427.434 C 139.237 427.354 135.603 426.156 129.714 421.047 C 127.145 416.967 127.089 413.782 127.818 409.111 C 128.471 407.643 129.127 406.176 129.86 404.746 C 130.819 402.223 131.02 399.804 131.316 397.129 C 132.424 388.184 134.632 379.492 136.78 370.738 C 137.197 369.011 137.615 367.285 138.033 365.558 C 140.283 356.294 142.625 347.061 145.171 337.869 C 147.404 329.732 149.266 321.516 151.151 313.298 C 153.472 303.193 155.943 293.127 158.453 283.064 C 159.401 279.254 160.327 275.44 161.249 271.622 C 161.48 270.664 161.48 270.664 161.716 269.689 C 162.058 268.269 162.399 266.849 162.742 265.431 C 161.764 265.107 161.764 265.107 160.768 264.775 C 157.755 263.477 155.556 261.849 152.977 259.854 C 147.882 255.959 142.702 252.195 137.468 248.476 C 131.026 243.882 124.652 239.222 118.336 234.465 C 115.379 232.245 112.408 230.042 109.438 227.838 C 108.788 227.355 108.141 226.875 107.471 226.379 C 105.371 224.82 103.267 223.26 101.166 221.703 C 100.392 221.129 99.618 220.554 98.821 219.963 C 96.367 218.143 93.914 216.325 91.458 214.507 C 90.648 213.907 89.839 213.306 89.005 212.688 C 85.178 209.854 81.341 207.036 77.469 204.262 C 76.792 203.776 76.116 203.291 75.419 202.79 C 74.166 201.892 72.91 200.999 71.651 200.109 C 64.824 195.214 64.824 195.214 63.909 190.705 C 63.777 186.19 63.837 182.265 66.472 178.42 C 74.507 170.883 90.91 171.437 101.434 170.197 C 111.467 168.987 121.418 167.299 131.377 165.62 C 138.867 164.367 146.341 163.286 153.895 162.489 C 157.32 162.127 160.685 161.669 164.064 161.018 C 171.209 159.66 178.481 159.067 185.718 158.34 C 185.835 157.315 185.951 156.292 186.071 155.237 C 186.575 151.333 187.409 147.556 188.343 143.731 C 188.688 142.279 189.033 140.828 189.379 139.374 C 189.561 138.62 189.741 137.864 189.927 137.088 C 192.915 124.567 195.72 112.034 198.068 99.384 C 198.283 98.232 198.498 97.079 198.719 95.891 C 199.954 89.107 200.96 82.326 201.795 75.487 C 202.552 70.908 203.853 68.136 207.585 65.065 C 211.574 62.345 214.782 60.999 219.722 61.959 Z M 202.074 184.283 C 188.567 198.368 183.609 213.176 183.538 232.127 C 183.536 232.754 183.536 233.365 183.535 233.973 C 183.522 244.006 184.047 253.606 187.27 263.2 C 192.787 276.871 201.299 286.874 215.127 293.096 C 234.286 300.719 256.136 297.262 274.865 290.419 C 274.865 283.137 274.865 276.069 274.865 269 C 268.433 269.894 268.433 269.894 265.331 270.761 C 258.66 272.707 252.443 273.715 245.462 273.843 C 244.503 273.845 243.573 273.85 242.641 273.853 C 233.968 273.937 227.801 272.862 221.224 267.022 C 213.358 258.689 212.033 247.383 212.037 236.537 C 212.053 235.343 212.067 234.183 212.083 233.025 C 212.066 226.215 212.03 220.202 214.209 213.671 C 217.886 204.754 222.318 198.661 231.384 194.539 C 241.641 190.957 251.008 193.561 260.735 197.216 C 264.22 198.571 267.48 199.687 271.19 200.285 C 274.157 193.205 277.088 186.16 279.461 178.866 C 267.703 174.641 256.689 170.783 244.017 170.528 C 242.596 170.513 242.596 170.513 241.206 170.5 C 227.041 170.297 212.495 174.555 202.074 184.283 Z" fill="#010101" style="stroke-width: 1;"/>
</svg>